<svg aria-hidden="true" style="position: absolute; width: 0; height: 0; overflow: hidden;" version="1.1" xmlns="http://www.w3.org/2000/svg" xmlns:xlink="http://www.w3.org/1999/xlink">
<defs>
<symbol id="icon-gift" viewBox="0 0 24 24">
<path d="M11 13v8h-6v-8zM13 21v-8h6v8zM7.5 6c-0.414 0-0.788-0.167-1.061-0.439s-0.439-0.647-0.439-1.061 0.167-0.788 0.439-1.061 0.647-0.439 1.061-0.439c0.629 0 1.142 0.223 1.584 0.586 0.376 0.308 0.701 0.719 0.976 1.177 0.241 0.401 0.433 0.821 0.58 1.203zM13.346 6c0.161-0.416 0.353-0.836 0.593-1.237 0.275-0.459 0.601-0.869 0.976-1.177 0.443-0.363 0.956-0.586 1.585-0.586 0.414 0 0.788 0.167 1.061 0.439s0.439 0.647 0.439 1.061-0.167 0.788-0.439 1.061-0.647 0.439-1.061 0.439zM11 8v3h-8v-3h4.5zM19.663 6c0.216-0.455 0.337-0.963 0.337-1.5 0-0.966-0.393-1.843-1.025-2.475s-1.509-1.025-2.475-1.025c-1.16 0-2.109 0.43-2.852 1.039-0.603 0.494-1.068 1.103-1.423 1.694-0.080 0.133-0.155 0.266-0.225 0.398-0.070-0.132-0.145-0.265-0.225-0.398-0.355-0.591-0.82-1.2-1.423-1.694-0.743-0.609-1.692-1.039-2.852-1.039-0.966 0-1.843 0.393-2.475 1.025s-1.025 1.509-1.025 2.475c0 0.537 0.121 1.045 0.337 1.5h-2.337c-0.552 0-1 0.448-1 1v5c0 0.552 0.448 1 1 1h1v9c0 0.552 0.448 1 1 1h16c0.552 0 1-0.448 1-1v-9h1c0.552 0 1-0.448 1-1v-5c0-0.552-0.448-1-1-1zM13 8h8v3h-8z"></path>
</symbol>
<symbol id="icon-bookmark" viewBox="0 0 20 20">
<path d="M14 2v17l-4-4-4 4v-17c0-0.553 0.585-1.020 1-1h6c0.689-0.020 1 0.447 1 1z"></path>
</symbol>
<symbol id="icon-chevron-thin-right" viewBox="0 0 20 20">
<path d="M13.25 10l-7.141-7.42c-0.268-0.27-0.268-0.707 0-0.979 0.268-0.27 0.701-0.27 0.969 0l7.83 7.908c0.268 0.271 0.268 0.709 0 0.979l-7.83 7.908c-0.268 0.271-0.701 0.27-0.969 0s-0.268-0.707 0-0.979l7.141-7.417z"></path>
</symbol>
<symbol id="icon-home" viewBox="0 0 20 20">
<path d="M18.672 11h-1.672v6c0 0.445-0.194 1-1 1h-4v-6h-4v6h-4c-0.806 0-1-0.555-1-1v-6h-1.672c-0.598 0-0.47-0.324-0.060-0.748l8.024-8.032c0.195-0.202 0.451-0.302 0.708-0.312 0.257 0.010 0.513 0.109 0.708 0.312l8.023 8.031c0.411 0.425 0.539 0.749-0.059 0.749z"></path>
</symbol>
<symbol id="icon-location-pin" viewBox="0 0 20 20">
<path d="M10 2.009c-2.762 0-5 2.229-5 4.99 0 4.774 5 11 5 11s5-6.227 5-11c0-2.76-2.238-4.99-5-4.99zM10 9.76c-1.492 0-2.7-1.209-2.7-2.7s1.208-2.7 2.7-2.7c1.49 0 2.699 1.209 2.699 2.7s-1.209 2.7-2.699 2.7z"></path>
</symbol>
<symbol id="icon-magnifying-glass" viewBox="0 0 20 20">
<path d="M17.545 15.467l-3.779-3.779c0.57-0.935 0.898-2.035 0.898-3.21 0-3.417-2.961-6.377-6.378-6.377s-6.186 2.769-6.186 6.186c0 3.416 2.961 6.377 6.377 6.377 1.137 0 2.2-0.309 3.115-0.844l3.799 3.801c0.372 0.371 0.975 0.371 1.346 0l0.943-0.943c0.371-0.371 0.236-0.84-0.135-1.211zM4.004 8.287c0-2.366 1.917-4.283 4.282-4.283s4.474 2.107 4.474 4.474c0 2.365-1.918 4.283-4.283 4.283s-4.473-2.109-4.473-4.474z"></path>
</symbol>
<symbol id="icon-shop" viewBox="0 0 20 20">
<path d="M6.123 7.25l0.791-5.25h-4.114l-1.719 4.5c-0.053 0.16-0.081 0.326-0.081 0.5 0 1.104 1.15 2 2.571 2 1.31 0 2.393-0.764 2.552-1.75zM10 9c1.42 0 2.571-0.896 2.571-2 0-0.041-0.003-0.082-0.005-0.121l-0.509-4.879h-4.114l-0.51 4.875c-0.002 0.041-0.004 0.082-0.004 0.125 0 1.104 1.151 2 2.571 2zM15 10.046v3.954h-10v-3.948c-0.438 0.158-0.92 0.248-1.429 0.248-0.195 0-0.384-0.023-0.571-0.049v6.349c0 0.77 0.629 1.4 1.398 1.4h11.202c0.77 0 1.4-0.631 1.4-1.4v-6.348c-0.188 0.025-0.376 0.049-0.571 0.049-0.506-0.001-0.99-0.093-1.429-0.255zM18.92 6.5l-1.721-4.5h-4.113l0.79 5.242c0.154 0.99 1.237 1.758 2.553 1.758 1.42 0 2.571-0.896 2.571-2 0-0.174-0.028-0.34-0.080-0.5z"></path>
</symbol>
<symbol id="icon-shopping-cart" viewBox="0 0 20 20">
<path d="M13 17c0 1.104 0.894 2 2 2 1.104 0 2-0.896 2-2 0-1.106-0.896-2-2-2-1.106 0-2 0.894-2 2zM3 17c0 1.104 0.895 2 2 2 1.103 0 2-0.896 2-2 0-1.106-0.897-2-2-2-1.105 0-2 0.894-2 2zM6.547 12.172l11.068-3.162c0.211-0.061 0.385-0.289 0.385-0.51v-5.5h-14v-1.6c0-0.22-0.181-0.4-0.399-0.4h-3.202c-0.219 0-0.399 0.18-0.399 0.4v1.6h2l1.91 8.957 0.090 0.943v1.649c0 0.219 0.18 0.4 0.4 0.4h13.2c0.22 0 0.4-0.182 0.4-0.4v-1.549h-11.248c-1.15 0-1.174-0.551-0.205-0.828z"></path>
</symbol>
<symbol id="icon-star" viewBox="0 0 20 20">
<path d="M10 1.3l2.388 6.722h6.412l-5.232 3.948 1.871 6.928-5.439-4.154-5.438 4.154 1.87-6.928-5.233-3.948h6.412l2.389-6.722z"></path>
</symbol>
<symbol id="icon-map2" viewBox="0 0 32 32">
<path d="M21 6l-10-4-11 4v24l11-4 10 4 11-4v-24l-11 4zM12 4.554l8 3.2v19.692l-8-3.2v-19.692zM2 7.401l8-2.909v19.744l-8 2.909v-19.744zM30 24.599l-8 2.909v-19.744l8-2.909v19.744z"></path>
</symbol>
<symbol id="icon-bubbles" viewBox="0 0 36 32">
<path d="M34 28.161c0 1.422 0.813 2.653 2 3.256v0.498c-0.332 0.045-0.671 0.070-1.016 0.070-2.125 0-4.042-0.892-5.398-2.321-0.819 0.218-1.688 0.336-2.587 0.336-4.971 0-9-3.582-9-8s4.029-8 9-8c4.971 0 9 3.582 9 8 0 1.73-0.618 3.331-1.667 4.64-0.213 0.463-0.333 0.979-0.333 1.522zM16 0c8.702 0 15.781 5.644 15.995 12.672-1.537-0.685-3.237-1.047-4.995-1.047-2.986 0-5.807 1.045-7.942 2.943-2.214 1.968-3.433 4.607-3.433 7.432 0 1.396 0.298 2.747 0.867 3.993-0.163 0.004-0.327 0.007-0.492 0.007-0.849 0-1.682-0.054-2.495-0.158-3.437 3.437-7.539 4.053-11.505 4.144v-0.841c2.142-1.049 4-2.961 4-5.145 0-0.305-0.024-0.604-0.068-0.897-3.619-2.383-5.932-6.024-5.932-10.103 0-7.18 7.163-13 16-13z"></path>
</symbol>
<symbol id="icon-truck" viewBox="0 0 32 32">
<path d="M32 18l-4-8h-6v-4c0-1.1-0.9-2-2-2h-18c-1.1 0-2 0.9-2 2v16l2 2h2.536c-0.341 0.588-0.536 1.271-0.536 2 0 2.209 1.791 4 4 4s4-1.791 4-4c0-0.729-0.196-1.412-0.536-2h11.073c-0.341 0.588-0.537 1.271-0.537 2 0 2.209 1.791 4 4 4s4-1.791 4-4c0-0.729-0.196-1.412-0.537-2h2.537v-6zM22 18v-6h4.146l3 6h-7.146z"></path>
</symbol>
</defs>
</svg>
